<?xml version="1.0" encoding="UTF-8"?>
<!-- Generated by Pixelmator Pro 3.6.17 -->
<svg width="519" height="162" viewBox="0 0 519 162" xmlns="http://www.w3.org/2000/svg">
    <g id="Nava-Logotype-Black-V01">
        <g id="Group">
            <g id="g1">
                <g id="g2">
                    <clipPath id="clipPath1">
                        <path d="M 82.800003 0.068646 L 436.068183 0.068646 L 436.068183 161.700012 L 82.800003 161.700012 Z"/>
                    </clipPath>
                    <path id="Path" fill="#000000" stroke="none" clip-path="url(#clipPath1)" d="M 393.909454 88.986488 C 389.171753 88.986488 385.944611 86.171341 385.944611 82.188911 C 385.944611 77.725853 389.515045 74.979355 396.861938 73.468796 L 405.444733 71.820877 L 405.444733 78.89312 C 405.444733 84.866745 400.707031 88.986488 393.909454 88.986488 M 381.687531 106.701401 C 392.879517 106.701401 402.492279 101.82637 406.337341 94.136169 C 406.337341 98.118607 406.61203 101.551727 407.367279 104.916183 L 435.999512 104.916183 C 434.969604 101.071075 434.214264 93.998856 434.214264 86.720634 L 434.214264 59.873619 C 434.214264 38.725601 422.404388 29.318848 396.724609 29.318848 C 373.860046 29.318848 359.646912 38.93158 358.342285 56.028526 L 387.45517 56.028526 C 387.867126 50.123573 390.819672 47.171074 396.58728 47.171074 C 401.59964 47.171074 404.414825 49.848907 404.414825 55.410568 L 404.414825 58.637711 L 384.365387 61.658852 C 373.585358 63.306747 366.513153 65.778595 362.050079 69.623695 C 357.930328 73.19413 356.007813 78.069168 356.007813 84.660759 C 356.007813 97.843956 366.307159 106.701401 381.687531 106.701401 M 297.644745 104.916183 L 330.396698 104.916183 L 355.66449 31.104065 L 325.247009 31.104065 L 315.840271 71.271591 C 314.810333 75.528671 314.673004 77.931854 314.192352 81.29631 L 313.917725 81.29631 C 313.505737 77.931854 313.299774 75.528671 312.269836 71.271591 L 302.794434 31.104065 L 272.376953 31.104065 L 297.644745 104.916183 Z M 228.501663 88.986488 C 223.763962 88.986488 220.536819 86.171341 220.536819 82.188911 C 220.536819 77.725853 224.107285 74.979355 231.454147 73.468796 L 240.036942 71.820877 L 240.036942 78.89312 C 240.036942 84.866745 235.29924 88.986488 228.501663 88.986488 M 216.27977 106.701401 C 227.471725 106.701401 237.084473 101.82637 240.929565 94.136169 C 240.929565 98.118607 241.204224 101.551727 241.959503 104.916183 L 270.591736 104.916183 C 269.561798 101.071075 268.806519 93.998856 268.806519 86.720634 L 268.806519 59.873619 C 268.806519 38.725601 256.996582 29.318848 231.316833 29.318848 C 208.452225 29.318848 194.23912 38.93158 192.93454 56.028526 L 222.047409 56.028526 C 222.459381 50.123573 225.411865 47.171074 231.179504 47.171074 C 236.191864 47.171074 239.007004 49.848907 239.007004 55.410568 L 239.007004 58.637711 L 218.888931 61.590179 C 208.108917 63.238075 201.036697 65.70993 196.573639 69.555031 C 192.453888 73.125481 190.531357 78.000496 190.531357 84.592094 C 190.600006 97.843956 200.899368 106.701401 216.27977 106.701401 M 82.800003 104.916183 L 111.294907 104.916183 L 111.294907 54.723938 L 111.294907 40.854141 L 111.569557 40.854141 C 112.874146 44.218597 115.414658 48.956299 117.611847 53.419357 L 147.136688 104.984848 L 179.064728 104.984848 L 179.064728 0.068649 L 150.569809 0.068649 L 150.569809 51.153503 L 150.569809 64.268013 L 150.295166 64.268013 C 148.99057 60.697578 146.038086 54.655273 143.97821 50.672859 L 116.238602 0 L 82.86866 0 L 82.800003 104.916183 L 82.800003 104.916183 Z"/>
                </g>
            </g>
        </g>
        <path id="path1" fill="#000000" stroke="none" d="M 82.800003 133.273758 L 433.802307 133.273758 L 433.802307 161.700012 L 82.800003 161.700012 Z"/>
    </g>
</svg>
