<?xml version="1.0" encoding="UTF-8"?>
<!-- Generated by Pixelmator Pro 3.6.17 -->
<svg width="653" height="204" viewBox="0 0 653 204" xmlns="http://www.w3.org/2000/svg">
    <g id="Nava-Logotype-Black-V01">
        <g id="Group">
            <g id="g1">
                <g id="g2">
                    <clipPath id="clipPath1">
                        <path d="M 104.800003 1.086051 L 547.641431 1.086051 L 547.641431 203.700012 L 104.800003 203.700012 Z"/>
                    </clipPath>
                    <path id="Path" fill="#000000" stroke="none" clip-path="url(#clipPath1)" d="M 494.793121 112.549538 C 488.854126 112.549538 484.808716 109.020599 484.808716 104.028397 C 484.808716 98.433708 489.284485 94.990814 498.494232 93.097244 L 509.253235 91.031494 L 509.253235 99.896942 C 509.253235 107.385208 503.31424 112.549538 494.793121 112.549538 M 479.472229 134.75618 C 493.502045 134.75618 505.552155 128.64505 510.372162 119.004951 C 510.372162 123.997154 510.716492 128.300766 511.663239 132.518295 L 547.555359 132.518295 C 546.264282 127.69825 545.317444 118.832825 545.317444 109.709167 L 545.317444 76.054939 C 545.317444 49.544708 530.513062 37.752808 498.322052 37.752808 C 469.660034 37.752808 451.843079 49.802917 450.207672 71.234894 L 486.702332 71.234894 C 487.218719 63.832703 490.919861 60.131577 498.149902 60.131577 C 504.433167 60.131577 507.962158 63.488388 507.962158 70.460236 L 507.962158 74.505646 L 482.829071 78.292816 C 469.315735 80.358543 460.450287 83.457146 454.855591 88.277199 C 449.691284 92.752937 447.28125 98.864067 447.28125 107.126999 C 447.28125 123.65287 460.192078 134.75618 479.472229 134.75618 M 374.119904 132.518295 L 415.176331 132.518295 L 446.850891 39.990692 L 408.720917 39.990692 L 396.929016 90.342926 C 395.637939 95.679413 395.46579 98.69194 394.863281 102.90947 L 394.518982 102.90947 C 394.002563 98.69194 393.744354 95.679413 392.453278 90.342926 L 380.575317 39.990692 L 342.445313 39.990692 L 374.119904 132.518295 Z M 287.44519 112.549538 C 281.506226 112.549538 277.460815 109.020599 277.460815 104.028397 C 277.460815 98.433708 281.936584 94.990814 291.146271 93.097244 L 301.905304 91.031494 L 301.905304 99.896942 C 301.905304 107.385208 295.966339 112.549538 287.44519 112.549538 M 272.124359 134.75618 C 286.154114 134.75618 298.204224 128.64505 303.024261 119.004951 C 303.024261 123.997154 303.368561 128.300766 304.315338 132.518295 L 340.207428 132.518295 C 338.916351 127.69825 337.969574 118.832825 337.969574 109.709167 L 337.969574 76.054939 C 337.969574 49.544708 323.165161 37.752808 290.974152 37.752808 C 262.312103 37.752808 244.495178 49.802917 242.859802 71.234894 L 279.354401 71.234894 C 279.87085 63.832703 283.57193 60.131577 290.802002 60.131577 C 297.085297 60.131577 300.614227 63.488388 300.614227 70.460236 L 300.614227 74.505646 L 275.395081 78.206741 C 261.881744 80.272469 253.016312 83.371071 247.421616 88.191116 C 242.257294 92.666885 239.847275 98.777992 239.847275 107.040924 C 239.933334 123.65287 252.844162 134.75618 272.124359 134.75618 M 104.800003 132.518295 L 140.519958 132.518295 L 140.519958 69.599518 L 140.519958 52.212952 L 140.864243 52.212952 C 142.499619 56.430481 145.684296 62.369461 148.438599 67.964157 L 185.449646 132.60437 L 225.473221 132.60437 L 225.473221 1.086044 L 189.75325 1.086044 L 189.75325 65.123779 L 189.75325 81.563553 L 189.408966 81.563553 C 187.77359 77.087814 184.072479 69.513443 181.490311 64.521271 L 146.717163 1 L 104.88607 1 L 104.800003 132.518295 L 104.800003 132.518295 Z"/>
                </g>
            </g>
        </g>
        <path id="path1" fill="#000000" stroke="none" d="M 104.800003 168.066101 L 544.801025 168.066101 L 544.801025 203.700012 L 104.800003 203.700012 Z"/>
    </g>
</svg>
