<?xml version="1.0" encoding="UTF-8"?>
<!-- Generated by Pixelmator Pro 3.6.17 -->
<svg width="519" height="162" viewBox="0 0 519 162" xmlns="http://www.w3.org/2000/svg">
    <g id="Nava-Logotype-Black-V01">
        <g id="Group">
            <g id="g1">
                <g id="g2">
                    <clipPath id="clipPath1">
                        <path d="M 4.800003 0.299988 L 519.300003 0.299988 L 519.300003 235.700012 L 4.800003 235.700012 Z"/>
                    </clipPath>
                    <path id="Path" fill="#000000" stroke="none" clip-path="url(#clipPath1)" d="M 457.900024 129.799988 C 451 129.799988 446.299988 125.700012 446.299988 119.899994 C 446.299988 113.399994 451.5 109.399994 462.200012 107.200012 L 474.700012 104.799988 L 474.700012 115.100006 C 474.700012 123.799988 467.799988 129.799988 457.900024 129.799988 M 440.099976 155.600006 C 456.400024 155.600006 470.400024 148.5 476 137.299988 C 476 143.100006 476.400024 148.100006 477.5 153 L 519.200012 153 C 517.700012 147.399994 516.599976 137.100006 516.599976 126.5 L 516.599976 87.399994 C 516.599976 56.600006 499.400024 42.899994 462 42.899994 C 428.700012 42.899994 408 56.899994 406.099976 81.799988 L 448.5 81.799988 C 449.099976 73.200012 453.400024 68.899994 461.799988 68.899994 C 469.099976 68.899994 473.200012 72.799988 473.200012 80.899994 L 473.200012 85.600006 L 444 90 C 428.299988 92.399994 418 96 411.5 101.600006 C 405.5 106.799988 402.700012 113.899994 402.700012 123.5 C 402.700012 142.700012 417.700012 155.600006 440.099976 155.600006 M 317.700012 153 L 365.399994 153 L 402.200012 45.5 L 357.899994 45.5 L 344.200012 104 C 342.700012 110.200012 342.5 113.700012 341.799988 118.600006 L 341.399994 118.600006 C 340.799988 113.700012 340.5 110.200012 339 104 L 325.200012 45.5 L 280.899994 45.5 L 317.700012 153 Z M 217 129.799988 C 210.100006 129.799988 205.399994 125.700012 205.399994 119.899994 C 205.399994 113.399994 210.600006 109.399994 221.299988 107.200012 L 233.799988 104.799988 L 233.799988 115.100006 C 233.799988 123.799988 226.899994 129.799988 217 129.799988 M 199.200012 155.600006 C 215.5 155.600006 229.5 148.5 235.100006 137.299988 C 235.100006 143.100006 235.5 148.100006 236.600006 153 L 278.299988 153 C 276.799988 147.399994 275.700012 137.100006 275.700012 126.5 L 275.700012 87.399994 C 275.700012 56.600006 258.5 42.899994 221.100006 42.899994 C 187.799988 42.899994 167.100006 56.899994 165.200012 81.799988 L 207.600006 81.799988 C 208.200012 73.200012 212.5 68.899994 220.899994 68.899994 C 228.200012 68.899994 232.299988 72.799988 232.299988 80.899994 L 232.299988 85.600006 L 203 89.899994 C 187.299988 92.299988 177 95.899994 170.5 101.5 C 164.5 106.700012 161.700012 113.799988 161.700012 123.399994 C 161.799988 142.700012 176.799988 155.600006 199.200012 155.600006 M 4.800003 153 L 46.300003 153 L 46.300003 79.899994 L 46.300003 59.700012 L 46.699997 59.700012 C 48.600006 64.600006 52.300003 71.5 55.5 78 L 98.5 153.100006 L 145 153.100006 L 145 0.299988 L 103.5 0.299988 L 103.5 74.700012 L 103.5 93.799988 L 103.100006 93.799988 C 101.199997 88.600006 96.899994 79.799988 93.899994 74 L 53.5 0.200012 L 4.899994 0.200012 L 4.800003 153 L 4.800003 153 Z"/>
                </g>
            </g>
        </g>
        <path id="path1" fill="#000000" stroke="none" d="M 4.800003 194.299988 L 516 194.299988 L 516 235.700012 L 4.800003 235.700012 Z"/>
    </g>
</svg>
